# xmcd
# 
# Track frame offsets:
#     150
#     11510
#     41945
#     56970
#     64570
#     88705
#     95767
#     107615
#     127035
#     159195
#     162892
#     175117
#     203177
#     214265
#     221085
#     235452
#     257195
#     271152
# 
# Disc length: 3728
# 
# Revision: 0
# Processed by: cddbd v1.5.2PL0 Copyright (c) Steve Scherf et al.
# Submitted via: BonkEnc v1.0.6
# 
DISCID=090e8e12
DTITLE=Bill Frisell - Blues Dream
DYEAR=2001
DGENRE=Contemporary Jazz
TTITLE0=Blues Dream
TTITLE1=Ron Carter
TTITLE2=Pretty Flowers Were Made for Blooming
TTITLE3=Pretty Stars Were Made to Shine
TTITLE4=Where Do We Go?
TTITLE5=Like Dreamers Do (part one)
TTITLE6=Like Dreamers Do (part two)
TTITLE7=Outlaws
TTITLE8=What Do We Go?
TTITLE9=Episode
TTITLE10=Soul Merchant
TTITLE11=Greg Leisz
TTITLE12=The Tractor
TTITLE13=Fifty Years
TTITLE14=Slow Dance
TTITLE15=Things Will Never Be the Same
TTITLE16=Dream On
TTITLE17=Blues Dream (Reprise)
EXTD=YEAR: 2001
EXTT0=
EXTT1=
EXTT2=
EXTT3=
EXTT4=
EXTT5=
EXTT6=
EXTT7=
EXTT8=
EXTT9=
EXTT10=
EXTT11=
EXTT12=
EXTT13=
EXTT14=
EXTT15=
EXTT16=
EXTT17=
PLAYORDER=
